# xmcd
#
# Track frame offsets:
#	150
#	36097
#	76217
#	109849
#	128759
#	158290
#	186087
#	220978
#	239175
#	257199
#	275556
#	293942
#	321675
#
# Disc length: 4503 seconds
#
# Revision: 1
# Processed by: cddbd v1.5.2PL0 Copyright (c) Steve Scherf et al.
# Submitted via: EasyCDDAExtractor 15.2.5.1
#
DISCID=c511950d
DTITLE=Various Artist - I Love House Vol 3 CD 2
DYEAR=2006
DGENRE=House
TTITLE0=Tom Novy  - Unexpected
TTITLE1=Carl Kennedy - Right before My Eyes
TTITLE2=Milk and Sugar - Has Your Man Got Soul
TTITLE3=Supermode - Tell Me Why
TTITLE4=Plastik Funk - Gonna Make You Sweat
TTITLE5=Untouchable 3 - That Once In A Lifetime
TTITLE6=Flanders - By My Side
TTITLE7=W.V.P. presents MR. DA-NOS  - Watching U
TTITLE8=Stereofunk - Dancing to the Beat
TTITLE9=Demarcus Lewis - Red Planet Funk
TTITLE10=Wonderland Avenue - White Horse
TTITLE11=Christopher and Raphael Jost  - Disco 128
TTITLE12=Flat Pack - Sweet Child O'Mine
EXTD=YEAR: 2006
EXTT0=
EXTT1=
EXTT2=
EXTT3=
EXTT4=
EXTT5=
EXTT6=
EXTT7=
EXTT8=
EXTT9=
EXTT10=
EXTT11=
EXTT12=
PLAYORDER=
